<svg width="34" height="35" viewBox="0 0 34 35" fill="none" xmlns="http://www.w3.org/2000/svg">
<g clip-path="url(#clip0_2_28)">
<mask id="mask0_2_28" style="mask-type:luminance" maskUnits="userSpaceOnUse" x="0" y="0" width="34" height="35">
<path d="M0 0.5H34V34.5H0V0.5Z" fill="white"/>
</mask>
<g mask="url(#mask0_2_28)">
<path fill-rule="evenodd" clip-rule="evenodd" d="M17 0.5C7.6075 0.5 0 8.1075 0 17.5C0 25.0225 4.86625 31.3763 11.6237 33.6288C12.4737 33.7775 12.7925 33.2675 12.7925 32.8213C12.7925 32.4175 12.7712 31.0788 12.7712 29.655C8.5 30.4413 7.395 28.6138 7.055 27.6575C6.86375 27.1688 6.035 25.66 5.3125 25.2563C4.7175 24.9375 3.8675 24.1513 5.29125 24.13C6.63 24.1088 7.58625 25.3625 7.905 25.8725C9.435 28.4438 11.8787 27.7213 12.8562 27.275C13.005 26.17 13.4513 25.4263 13.94 25.0013C10.1575 24.5763 6.205 23.11 6.205 16.6075C6.205 14.7588 6.86375 13.2288 7.9475 12.0388C7.7775 11.6138 7.1825 9.87125 8.1175 7.53375C8.1175 7.53375 9.54125 7.0875 12.7925 9.27625C14.1525 8.89375 15.5975 8.7025 17.0425 8.7025C18.4875 8.7025 19.9325 8.89375 21.2925 9.27625C24.5437 7.06625 25.9675 7.53375 25.9675 7.53375C26.9025 9.87125 26.3075 11.6138 26.1375 12.0388C27.2213 13.2288 27.88 14.7375 27.88 16.6075C27.88 23.1313 23.9062 24.5763 20.1237 25.0013C20.74 25.5325 21.2712 26.5525 21.2712 28.1462C21.2712 30.42 21.25 32.2475 21.25 32.8213C21.25 33.2675 21.5687 33.7988 22.4187 33.6288C25.7935 32.4894 28.726 30.3204 30.8035 27.4271C32.881 24.5338 33.999 21.0619 34 17.5C34 8.1075 26.3925 0.5 17 0.5Z" fill="#AA52F7"/>
</g>
</g>
<defs>
<clipPath id="clip0_2_28">
<rect width="34" height="34" fill="white" transform="translate(0 0.5)"/>
</clipPath>
</defs>
</svg>
