<svg width="30" height="31" viewBox="0 0 30 31" fill="none" xmlns="http://www.w3.org/2000/svg">
<path d="M21.1452 0.5H8.85484C3.96774 0.5 0 4.46774 0 9.35484V21.5484C0 26.5323 3.96774 30.5 8.85484 30.5H21.0484C26.0323 30.5 30 26.5323 30 21.6452V9.35484C30 4.46774 26.0323 0.5 21.1452 0.5ZM15.0484 22.8548C10.9355 22.8548 7.69355 19.5161 7.69355 15.5C7.69355 11.4839 10.9839 8.14516 15.0484 8.14516C19.0645 8.14516 22.3548 11.4839 22.3548 15.5C22.3548 19.5161 19.1129 22.8548 15.0484 22.8548ZM25.2097 8.82258C24.7258 9.35484 24 9.64516 23.1774 9.64516C22.4516 9.64516 21.7258 9.35484 21.1452 8.82258C20.6129 8.29032 20.3226 7.6129 20.3226 6.79032C20.3226 5.96774 20.6129 5.33871 21.1452 4.75806C21.6774 4.17742 22.3548 3.8871 23.1774 3.8871C23.9032 3.8871 24.6774 4.17742 25.2097 4.70968C25.6935 5.33871 26.0323 6.06452 26.0323 6.83871C25.9839 7.6129 25.6935 8.29032 25.2097 8.82258Z" fill="#AA52F7"/>
</svg>
