<svg width="32" height="35" viewBox="0 0 32 35" fill="none" xmlns="http://www.w3.org/2000/svg">
<path fill-rule="evenodd" clip-rule="evenodd" d="M4.57143 0C3.35901 0 2.19625 0.526784 1.33894 1.46447C0.481631 2.40215 0 3.67392 0 5V30C0 31.3261 0.481631 32.5979 1.33894 33.5355C2.19625 34.4732 3.35901 35 4.57143 35H27.4286C28.641 35 29.8038 34.4732 30.6611 33.5355C31.5184 32.5979 32 31.3261 32 30V5C32 3.67392 31.5184 2.40215 30.6611 1.46447C29.8038 0.526784 28.641 0 27.4286 0H4.57143ZM7.09029 10.7425C7.81471 10.7425 8.50945 10.4277 9.0217 9.86748C9.53394 9.30722 9.82171 8.54733 9.82171 7.755C9.82171 6.96267 9.53394 6.20278 9.0217 5.64252C8.50945 5.08225 7.81471 4.7675 7.09029 4.7675C6.36587 4.7675 5.67112 5.08225 5.15887 5.64252C4.64663 6.20278 4.35886 6.96267 4.35886 7.755C4.35886 8.54733 4.64663 9.30722 5.15887 9.86748C5.67112 10.4277 6.36587 10.7425 7.09029 10.7425ZM9.376 29.5325V13.085H4.80457V29.5325H9.376ZM12.4114 13.085H16.9829V15.2875C17.6571 14.1325 19.1383 12.5775 21.8926 12.5775C25.1794 12.5775 26.9646 14.96 26.9646 19.4925C26.9646 19.71 26.9829 20.7025 26.9829 20.7025V29.53H22.4114V20.705C22.4114 19.4925 22.1783 17.11 19.7143 17.11C17.248 17.11 17.04 20.105 16.9829 22.065V29.53H12.4114V13.085Z" fill="#AA52F7"/>
</svg>
